# xmcd
#
# Track frame offsets: 
#        150
#        23057
#        47262
#        70131
#        93695
#        115463
#        143588
#        164459
#        186608
#        201928
#
# Disc length: 2941 seconds
#
# Revision: 0
# Processed by: cddbd v1.5.2PL0 Copyright (c) Steve Scherf et al.
# Submitted via: ExactAudioCopy v1.0b3
#
DISCID=8e0b7b0a
DTITLE=Phi Nhung - Dieu Buon Phuong Nam
DYEAR=1998
DGENRE=
TTITLE0=Quen nhau tren duong ve
TTITLE1=Nam cum nui que huong
TTITLE2=Dieu buon phuong Nam
TTITLE3=Thuong nho que nha
TTITLE4=Mua qua pho vang
TTITLE5=Hanh trinh tren dat phu sa
TTITLE6=Loi nguoi ra di
TTITLE7=Phan buon
TTITLE8=Mot minh thoi
TTITLE9=Em ve keo mua
EXTD=
EXTT0=
EXTT1=
EXTT2=
EXTT3=
EXTT4=
EXTT5=
EXTT6=
EXTT7=
EXTT8=
EXTT9=
PLAYORDER=
